<svg width="2456" height="2456" xmlns="http://www.w3.org/2000/svg" xmlns:xlink="http://www.w3.org/1999/xlink" xml:space="preserve" overflow="hidden"><g transform="translate(-2379 -147)"><path d="M3381.28 2051 3381.28 1825.67 3555.83 1825.67 3851.43 1487.67 3555.83 1149.67 3370.02 1149.67 3189.84 2118.6C3174.82 2203.1 3140.1 2269.29 3085.67 2317.18 3031.25 2365.06 2961.8 2389 2877.34 2389 2792.88 2389 2724.38 2366.47 2671.83 2321.4 2619.28 2276.33 2593 2216.25 2593 2141.13 2593 2081.05 2608.95 2032.69 2640.86 1996.07 2672.77 1959.46 2713.12 1941.15 2761.92 1941.15 2808.84 1941.15 2848.72 1957.11 2881.57 1989.03 2914.41 2020.95 2930.83 2059.45 2930.83 2104.52 2930.83 2113.91 2930.36 2122.35 2929.43 2129.87 2928.49 2137.38 2927.08 2145.83 2925.2 2155.22 2934.59 2153.34 2942.56 2148.18 2949.13 2139.73 2955.7 2131.28 2960.86 2119.54 2964.62 2104.52L3139.16 1149.67 2818.22 1149.67 2818.22 924.333 3181.39 924.333 3240.51 603.233C3253.65 531.879 3288.84 473.667 3346.09 428.6 3403.33 383.533 3471.37 361 3550.19 361 3632.78 361 3700.34 385.412 3752.89 434.233 3805.45 483.055 3831.72 544.083 3831.72 617.317 3831.72 673.65 3815.77 720.125 3783.86 756.742 3751.96 793.358 3711.6 811.667 3662.81 811.667 3615.88 811.667 3576 795.704 3543.16 763.783 3510.31 731.862 3493.89 692.429 3493.89 645.483 3493.89 636.095 3494.36 627.645 3495.3 620.133 3496.23 612.621 3497.64 604.171 3499.52 594.783 3488.26 598.538 3479.81 604.171 3474.18 611.683 3468.55 619.195 3463.86 630.462 3460.11 645.483L3412.25 924.333 3944.33 924.333 3944.33 1149.67 3854.24 1149.67 4000.64 1315.85 4147.03 1149.67 4056.94 1149.67 4056.94 924.333 4620 924.333 4620 1149.67 4445.45 1149.67 4149.85 1487.67 4445.45 1825.67 4620 1825.67 4620 2051 4056.94 2051 4056.94 1825.67 4147.03 1825.67 4000.64 1656.67 3854.24 1825.67 3944.33 1825.67 3944.33 2051 3381.28 2051Z" fill="#B7DDFF" fill-rule="evenodd"/></g></svg>