<svg width="2456" height="2456" xmlns="http://www.w3.org/2000/svg" xmlns:xlink="http://www.w3.org/1999/xlink" xml:space="preserve" overflow="hidden"><g transform="translate(193 -147)"><path d="M809.278 2051 809.278 1825.67 983.825 1825.67 1279.43 1487.67 983.825 1149.67 798.017 1149.67 617.839 2118.6C602.825 2203.1 568.101 2269.29 513.674 2317.18 459.246 2365.06 389.801 2389 305.343 2389 220.885 2389 152.38 2366.47 99.8278 2321.4 47.2751 2276.33 21 2216.25 21 2141.13 21 2081.05 36.9543 2032.69 68.8598 1996.07 100.765 1959.46 141.119 1941.15 189.917 1941.15 236.839 1941.15 276.72 1957.11 309.566 1989.03 342.412 2020.95 358.833 2059.45 358.833 2104.52 358.833 2113.91 358.363 2122.35 357.426 2129.87 356.488 2137.38 355.08 2145.83 353.203 2155.22 362.586 2153.34 370.565 2148.18 377.132 2139.73 383.701 2131.28 388.864 2119.54 392.617 2104.52L567.164 1149.67 246.222 1149.67 246.222 924.333 609.393 924.333 668.514 603.233C681.653 531.879 716.844 473.667 774.087 428.6 831.33 383.533 899.367 361 978.194 361 1060.78 361 1128.34 385.412 1180.89 434.233 1233.45 483.055 1259.72 544.083 1259.72 617.317 1259.72 673.65 1243.77 720.125 1211.86 756.742 1179.96 793.358 1139.6 811.667 1090.81 811.667 1043.88 811.667 1004 795.704 971.156 763.783 938.311 731.862 921.889 692.429 921.889 645.483 921.889 636.095 922.359 627.645 923.297 620.133 924.234 612.621 925.642 604.171 927.52 594.783 916.258 598.538 907.812 604.171 902.182 611.683 896.551 619.195 891.858 630.462 888.106 645.483L840.246 924.333 1372.33 924.333 1372.33 1149.67 1282.24 1149.67 1428.64 1315.85 1575.03 1149.67 1484.94 1149.67 1484.94 924.333 2048 924.333 2048 1149.67 1873.45 1149.67 1577.85 1487.67 1873.45 1825.67 2048 1825.67 2048 2051 1484.94 2051 1484.94 1825.67 1575.03 1825.67 1428.64 1656.67 1282.24 1825.67 1372.33 1825.67 1372.33 2051 809.278 2051Z" fill="#006399" fill-rule="evenodd"/></g></svg>